<svg xmlns="http://www.w3.org/2000/svg" viewBox="0 0 64 88" width="64" height="88" shape-rendering="crispEdges">
  <!-- Balloon Envelope Shape -->
  <!-- Top Crown -->
  <rect x="24" y="4" width="16" height="4" fill="#eb4d4b" />
  <rect x="18" y="8" width="28" height="6" fill="#eb4d4b" />
  <rect x="14" y="14" width="36" height="8" fill="#eb4d4b" />
  <!-- Main Sphere with Vertical Stripes (Red, Cream, Gold, Turquoise) -->
  <!-- Stripe 1 (Left Red) -->
  <rect x="10" y="22" width="8" height="18" fill="#c0392b" />
  <rect x="12" y="40" width="6" height="10" fill="#c0392b" />
  <rect x="16" y="50" width="4" height="8" fill="#c0392b" />
  <!-- Stripe 2 (Cream) -->
  <rect x="18" y="22" width="8" height="20" fill="#f5f6fa" />
  <rect x="18" y="42" width="6" height="10" fill="#f5f6fa" />
  <rect x="20" y="52" width="4" height="8" fill="#f5f6fa" />
  <!-- Stripe 3 (Center Gold/Orange) -->
  <rect x="26" y="22" width="12" height="24" fill="#f39c12" />
  <rect x="24" y="46" width="16" height="8" fill="#f39c12" />
  <rect x="24" y="54" width="16" height="6" fill="#f39c12" />
  <!-- Stripe 4 (Cream Right) -->
  <rect x="38" y="22" width="8" height="20" fill="#f5f6fa" />
  <rect x="40" y="42" width="6" height="10" fill="#f5f6fa" />
  <rect x="40" y="52" width="4" height="8" fill="#f5f6fa" />
  <!-- Stripe 5 (Turquoise Right) -->
  <rect x="46" y="22" width="8" height="18" fill="#00a8ff" />
  <rect x="46" y="40" width="6" height="10" fill="#00a8ff" />
  <rect x="44" y="50" width="4" height="8" fill="#00a8ff" />
  <!-- Balloon Neck Collar -->
  <rect x="26" y="60" width="12" height="3" fill="#2d3436" />
  <rect x="27" y="63" width="10" height="2" fill="#e17055" />
  <!-- Rigging Suspension Cables -->
  <line x1="28" y1="65" x2="29" y2="72" stroke="#2d3436" stroke-width="1.5" />
  <line x1="36" y1="65" x2="35" y2="72" stroke="#2d3436" stroke-width="1.5" />
  <!-- Passenger Wicker Basket -->
  <rect x="27" y="72" width="10" height="8" fill="#d35400" />
  <rect x="28" y="73" width="8" height="2" fill="#e67e22" />
  <rect x="28" y="76" width="8" height="3" fill="#ba4a00" />
</svg>